# xmcd
#
# Track frame offsets:
#	150
#	15566
#	30601
#	46909
#	60793
#	75722
#	90302
#	105828
#	122898
#	137564
#	154095
#	170578
#	187788
#
# Disc length: 2648 seconds
#
# Revision: 1
# Processed by: cddbd v1.5.2PL0 Copyright (c) Steve Scherf et al.
# Submitted via: audiograbber 1.83.01
#
DISCID=8b0a560d
DTITLE=Kavaliri - Nujlijepsi kemaucek svieto
DYEAR=2007
DGENRE=Country
TTITLE0=Tei bous mo
TTITLE1=Juliko
TTITLE2=Lijepi si lijepi nas zagorski kraj
TTITLE3=Jounico
TTITLE4=Kumevo klijet
TTITLE5=Ze nevijeka vuoljeno
TTITLE6=Crvena suknjica
TTITLE7=Marica
TTITLE8=Nujlijepsi kemaucek svieto
TTITLE9=Jutre vjoutre
TTITLE10=Muzikasi cimbulasi
TTITLE11=Relnico - remix by DJ NENO
TTITLE12=Zeigrolo muziko - remix by DJ NENO
EXTD=
EXTT0=
EXTT1=
EXTT2=
EXTT3=
EXTT4=
EXTT5=
EXTT6=
EXTT7=
EXTT8=
EXTT9=
EXTT10=
EXTT11=
EXTT12=
PLAYORDER=
